<svg xmlns="http://www.w3.org/2000/svg" xmlns:xlink="http://www.w3.org/1999/xlink" id="svg" width="400" height="400" version="1.1" viewBox="0 0 400 400"><g id="svgg"><path id="path1" fill="#fbfbfb" fill-rule="evenodd" stroke="none" d="M0.000 200.000 L 0.000 400.000 200.000 400.000 L 400.000 400.000 400.000 200.000 L 400.000 0.000 200.000 0.000 L 0.000 0.000 0.000 200.000 M209.646 129.707 C 261.162 142.074,266.079 227.755,216.453 248.325 C 190.236 259.192,160.429 242.163,151.635 211.293 C 138.583 165.473,170.668 120.350,209.646 129.707 M52.148 139.160 C 54.714 143.511,58.592 150.059,60.764 153.711 C 62.937 157.363,66.006 162.549,67.583 165.234 C 69.160 167.920,71.242 171.436,72.210 173.047 C 73.177 174.658,74.523 176.943,75.202 178.125 C 75.881 179.307,82.931 191.260,90.870 204.688 C 98.809 218.115,106.088 230.458,107.046 232.116 C 108.005 233.773,108.921 235.136,109.082 235.143 C 109.243 235.150,109.375 213.726,109.375 187.532 L 109.375 139.909 100.684 139.777 C 93.193 139.664,91.813 139.548,90.692 138.937 C 87.928 137.432,87.751 133.608,90.372 131.996 C 91.548 131.273,92.391 131.245,109.838 131.343 L 128.074 131.445 129.272 132.593 C 131.323 134.559,130.767 137.710,128.125 139.091 C 127.553 139.389,125.247 139.671,122.559 139.770 L 117.969 139.940 117.969 194.189 L 117.969 248.438 112.561 248.438 L 107.153 248.438 103.418 242.090 C 101.363 238.599,97.705 232.402,95.287 228.320 C 92.870 224.238,89.544 218.613,87.897 215.820 C 86.249 213.027,82.560 206.787,79.699 201.953 C 76.837 197.119,73.408 191.318,72.078 189.063 C 70.749 186.807,68.515 183.027,67.115 180.664 C 61.263 170.790,53.929 158.361,50.289 152.148 C 48.149 148.496,46.154 145.250,45.855 144.936 C 45.392 144.447,45.313 151.340,45.313 192.104 L 45.313 239.844 54.004 239.850 C 62.308 239.856,62.765 239.896,64.258 240.741 C 67.137 242.372,67.028 246.271,64.062 247.753 C 62.382 248.593,28.418 248.816,26.830 247.998 C 24.953 247.031,24.219 246.007,24.219 244.355 C 24.219 240.909,26.153 239.844,32.409 239.844 L 36.719 239.844 36.719 189.844 L 36.719 139.844 30.957 139.834 C 22.567 139.821,19.922 138.785,19.922 135.515 C 19.922 131.546,20.982 131.253,35.362 131.251 L 47.482 131.250 52.148 139.160 M369.892 150.879 C 369.859 172.739,369.856 172.767,367.459 173.957 C 364.673 175.340,362.400 173.906,361.723 170.337 C 361.502 169.171,361.328 161.992,361.328 154.044 L 361.328 139.836 344.238 139.937 L 327.148 140.039 327.148 189.844 L 327.148 239.648 339.258 239.844 C 345.918 239.951,351.631 240.197,351.953 240.390 C 355.140 242.300,355.329 245.795,352.344 247.606 C 350.270 248.863,295.833 248.918,293.377 247.665 C 290.543 246.220,290.374 242.436,293.070 240.805 C 294.234 240.101,295.307 240.023,306.351 239.844 L 318.366 239.648 318.366 189.844 L 318.365 140.039 301.273 140.039 L 284.180 140.039 283.984 155.929 C 283.796 171.292,283.762 171.856,282.970 172.921 C 281.219 175.279,277.799 174.934,276.465 172.265 C 275.842 171.018,275.782 169.165,275.782 151.074 L 275.781 131.250 322.852 131.250 L 369.922 131.250 369.892 150.879 M194.922 137.380 C 156.191 143.874,143.294 205.108,174.805 232.899 C 197.604 253.006,227.716 243.068,238.977 211.719 C 252.429 174.267,227.347 131.942,194.922 137.380"/><path id="path0" fill="#060606" fill-rule="evenodd" stroke="none" d="M191.797 129.248 C 162.825 135.659,144.724 166.027,149.392 200.391 C 154.960 241.382,191.667 263.549,223.288 245.015 C 255.048 226.400,260.858 172.724,234.207 144.141 C 223.101 132.230,205.791 126.151,191.797 129.248 M21.998 132.012 C 19.631 133.455,19.213 135.915,20.996 137.905 C 22.433 139.509,24.057 139.823,30.957 139.834 L 36.719 139.844 36.719 189.844 L 36.719 239.844 32.409 239.844 C 26.153 239.844,24.219 240.909,24.219 244.355 C 24.219 246.007,24.953 247.031,26.830 247.998 C 28.418 248.816,62.382 248.593,64.062 247.753 C 67.028 246.271,67.137 242.372,64.258 240.741 C 62.765 239.896,62.308 239.856,54.004 239.850 L 45.313 239.844 45.313 192.104 C 45.313 151.340,45.392 144.447,45.855 144.936 C 46.154 145.250,48.149 148.496,50.289 152.148 C 53.929 158.361,61.263 170.790,67.115 180.664 C 68.515 183.027,70.749 186.807,72.078 189.063 C 73.408 191.318,76.837 197.119,79.699 201.953 C 82.560 206.787,86.249 213.027,87.897 215.820 C 89.544 218.613,92.870 224.238,95.287 228.320 C 97.705 232.402,101.363 238.599,103.418 242.090 L 107.153 248.438 112.561 248.438 L 117.969 248.438 117.969 194.189 L 117.969 139.940 122.559 139.770 C 125.247 139.671,127.553 139.389,128.125 139.091 C 130.767 137.710,131.323 134.559,129.272 132.593 L 128.074 131.445 109.838 131.343 C 92.391 131.245,91.548 131.273,90.372 131.996 C 87.751 133.608,87.928 137.432,90.692 138.937 C 91.813 139.548,93.193 139.664,100.684 139.777 L 109.375 139.909 109.375 187.532 C 109.375 213.726,109.243 235.150,109.082 235.143 C 108.921 235.136,108.005 233.773,107.046 232.116 C 106.088 230.458,98.809 218.115,90.870 204.688 C 82.931 191.260,75.881 179.307,75.202 178.125 C 74.523 176.943,73.177 174.658,72.210 173.047 C 71.242 171.436,69.160 167.920,67.583 165.234 C 66.006 162.549,62.937 157.363,60.764 153.711 C 58.592 150.059,54.714 143.511,52.148 139.160 L 47.482 131.250 35.362 131.251 C 24.050 131.253,23.159 131.304,21.998 132.012 M275.782 151.074 C 275.782 169.165,275.842 171.018,276.465 172.265 C 277.799 174.934,281.219 175.279,282.970 172.921 C 283.762 171.856,283.796 171.292,283.984 155.929 L 284.180 140.039 301.273 140.039 L 318.365 140.039 318.366 189.844 L 318.366 239.648 306.351 239.844 C 295.307 240.023,294.234 240.101,293.070 240.805 C 290.374 242.436,290.543 246.220,293.377 247.665 C 295.833 248.918,350.270 248.863,352.344 247.606 C 355.329 245.795,355.140 242.300,351.953 240.390 C 351.631 240.197,345.918 239.951,339.258 239.844 L 327.148 239.648 327.148 189.844 L 327.148 140.039 344.238 139.937 L 361.328 139.836 361.328 154.044 C 361.328 161.992,361.502 169.171,361.723 170.337 C 362.400 173.906,364.673 175.340,367.459 173.957 C 369.856 172.767,369.859 172.739,369.892 150.879 L 369.922 131.250 322.852 131.250 L 275.781 131.250 275.782 151.074 M207.485 137.660 C 234.161 142.782,250.195 180.488,238.977 211.719 C 229.639 237.716,207.484 249.524,185.854 240.035 C 143.224 221.332,149.974 144.916,194.922 137.380 C 197.266 136.986,204.861 137.156,207.485 137.660"/><path id="path1" fill="#fbfbfb" fill-rule="evenodd" stroke="none" d="M0.000 200.000 L 0.000 400.000 200.000 400.000 L 400.000 400.000 400.000 200.000 L 400.000 0.000 200.000 0.000 L 0.000 0.000 0.000 200.000 M209.646 129.707 C 261.162 142.074,266.079 227.755,216.453 248.325 C 190.236 259.192,160.429 242.163,151.635 211.293 C 138.583 165.473,170.668 120.350,209.646 129.707 M52.148 139.160 C 54.714 143.511,58.592 150.059,60.764 153.711 C 62.937 157.363,66.006 162.549,67.583 165.234 C 69.160 167.920,71.242 171.436,72.210 173.047 C 73.177 174.658,74.523 176.943,75.202 178.125 C 75.881 179.307,82.931 191.260,90.870 204.688 C 98.809 218.115,106.088 230.458,107.046 232.116 C 108.005 233.773,108.921 235.136,109.082 235.143 C 109.243 235.150,109.375 213.726,109.375 187.532 L 109.375 139.909 100.684 139.777 C 93.193 139.664,91.813 139.548,90.692 138.937 C 87.928 137.432,87.751 133.608,90.372 131.996 C 91.548 131.273,92.391 131.245,109.838 131.343 L 128.074 131.445 129.272 132.593 C 131.323 134.559,130.767 137.710,128.125 139.091 C 127.553 139.389,125.247 139.671,122.559 139.770 L 117.969 139.940 117.969 194.189 L 117.969 248.438 112.561 248.438 L 107.153 248.438 103.418 242.090 C 101.363 238.599,97.705 232.402,95.287 228.320 C 92.870 224.238,89.544 218.613,87.897 215.820 C 86.249 213.027,82.560 206.787,79.699 201.953 C 76.837 197.119,73.408 191.318,72.078 189.063 C 70.749 186.807,68.515 183.027,67.115 180.664 C 61.263 170.790,53.929 158.361,50.289 152.148 C 48.149 148.496,46.154 145.250,45.855 144.936 C 45.392 144.447,45.313 151.340,45.313 192.104 L 45.313 239.844 54.004 239.850 C 62.308 239.856,62.765 239.896,64.258 240.741 C 67.137 242.372,67.028 246.271,64.062 247.753 C 62.382 248.593,28.418 248.816,26.830 247.998 C 24.953 247.031,24.219 246.007,24.219 244.355 C 24.219 240.909,26.153 239.844,32.409 239.844 L 36.719 239.844 36.719 189.844 L 36.719 139.844 30.957 139.834 C 22.567 139.821,19.922 138.785,19.922 135.515 C 19.922 131.546,20.982 131.253,35.362 131.251 L 47.482 131.250 52.148 139.160 M369.892 150.879 C 369.859 172.739,369.856 172.767,367.459 173.957 C 364.673 175.340,362.400 173.906,361.723 170.337 C 361.502 169.171,361.328 161.992,361.328 154.044 L 361.328 139.836 344.238 139.937 L 327.148 140.039 327.148 189.844 L 327.148 239.648 339.258 239.844 C 345.918 239.951,351.631 240.197,351.953 240.390 C 355.140 242.300,355.329 245.795,352.344 247.606 C 350.270 248.863,295.833 248.918,293.377 247.665 C 290.543 246.220,290.374 242.436,293.070 240.805 C 294.234 240.101,295.307 240.023,306.351 239.844 L 318.366 239.648 318.366 189.844 L 318.365 140.039 301.273 140.039 L 284.180 140.039 283.984 155.929 C 283.796 171.292,283.762 171.856,282.970 172.921 C 281.219 175.279,277.799 174.934,276.465 172.265 C 275.842 171.018,275.782 169.165,275.782 151.074 L 275.781 131.250 322.852 131.250 L 369.922 131.250 369.892 150.879 M194.922 137.380 C 156.191 143.874,143.294 205.108,174.805 232.899 C 197.604 253.006,227.716 243.068,238.977 211.719 C 252.429 174.267,227.347 131.942,194.922 137.380"/><path id="path0" fill="#060606" fill-rule="evenodd" stroke="none" d="M191.797 129.248 C 162.825 135.659,144.724 166.027,149.392 200.391 C 154.960 241.382,191.667 263.549,223.288 245.015 C 255.048 226.400,260.858 172.724,234.207 144.141 C 223.101 132.230,205.791 126.151,191.797 129.248 M21.998 132.012 C 19.631 133.455,19.213 135.915,20.996 137.905 C 22.433 139.509,24.057 139.823,30.957 139.834 L 36.719 139.844 36.719 189.844 L 36.719 239.844 32.409 239.844 C 26.153 239.844,24.219 240.909,24.219 244.355 C 24.219 246.007,24.953 247.031,26.830 247.998 C 28.418 248.816,62.382 248.593,64.062 247.753 C 67.028 246.271,67.137 242.372,64.258 240.741 C 62.765 239.896,62.308 239.856,54.004 239.850 L 45.313 239.844 45.313 192.104 C 45.313 151.340,45.392 144.447,45.855 144.936 C 46.154 145.250,48.149 148.496,50.289 152.148 C 53.929 158.361,61.263 170.790,67.115 180.664 C 68.515 183.027,70.749 186.807,72.078 189.063 C 73.408 191.318,76.837 197.119,79.699 201.953 C 82.560 206.787,86.249 213.027,87.897 215.820 C 89.544 218.613,92.870 224.238,95.287 228.320 C 97.705 232.402,101.363 238.599,103.418 242.090 L 107.153 248.438 112.561 248.438 L 117.969 248.438 117.969 194.189 L 117.969 139.940 122.559 139.770 C 125.247 139.671,127.553 139.389,128.125 139.091 C 130.767 137.710,131.323 134.559,129.272 132.593 L 128.074 131.445 109.838 131.343 C 92.391 131.245,91.548 131.273,90.372 131.996 C 87.751 133.608,87.928 137.432,90.692 138.937 C 91.813 139.548,93.193 139.664,100.684 139.777 L 109.375 139.909 109.375 187.532 C 109.375 213.726,109.243 235.150,109.082 235.143 C 108.921 235.136,108.005 233.773,107.046 232.116 C 106.088 230.458,98.809 218.115,90.870 204.688 C 82.931 191.260,75.881 179.307,75.202 178.125 C 74.523 176.943,73.177 174.658,72.210 173.047 C 71.242 171.436,69.160 167.920,67.583 165.234 C 66.006 162.549,62.937 157.363,60.764 153.711 C 58.592 150.059,54.714 143.511,52.148 139.160 L 47.482 131.250 35.362 131.251 C 24.050 131.253,23.159 131.304,21.998 132.012 M275.782 151.074 C 275.782 169.165,275.842 171.018,276.465 172.265 C 277.799 174.934,281.219 175.279,282.970 172.921 C 283.762 171.856,283.796 171.292,283.984 155.929 L 284.180 140.039 301.273 140.039 L 318.365 140.039 318.366 189.844 L 318.366 239.648 306.351 239.844 C 295.307 240.023,294.234 240.101,293.070 240.805 C 290.374 242.436,290.543 246.220,293.377 247.665 C 295.833 248.918,350.270 248.863,352.344 247.606 C 355.329 245.795,355.140 242.300,351.953 240.390 C 351.631 240.197,345.918 239.951,339.258 239.844 L 327.148 239.648 327.148 189.844 L 327.148 140.039 344.238 139.937 L 361.328 139.836 361.328 154.044 C 361.328 161.992,361.502 169.171,361.723 170.337 C 362.400 173.906,364.673 175.340,367.459 173.957 C 369.856 172.767,369.859 172.739,369.892 150.879 L 369.922 131.250 322.852 131.250 L 275.781 131.250 275.782 151.074 M207.485 137.660 C 234.161 142.782,250.195 180.488,238.977 211.719 C 229.639 237.716,207.484 249.524,185.854 240.035 C 143.224 221.332,149.974 144.916,194.922 137.380 C 197.266 136.986,204.861 137.156,207.485 137.660"/></g></svg>